<svg width="28" height="28" viewBox="0 0 28 28" fill="none" xmlns="http://www.w3.org/2000/svg">
<path d="M24.5212 17.3082L24.2758 18.017L24.2758 18.017L24.5212 17.3082ZM24.5212 10.6918L24.7665 11.4005L24.5212 10.6918ZM3.47892 17.3082L3.72429 18.017L3.72429 18.017L3.47892 17.3082ZM3.47892 10.6918L3.23354 11.4005H3.23354L3.47892 10.6918ZM18.0304 11.0303C18.3233 10.7374 18.3233 10.2626 18.0304 9.96967C17.7375 9.67678 17.2626 9.67678 16.9697 9.96967L18.0304 11.0303ZM9.96971 16.9697C9.67682 17.2626 9.67682 17.7374 9.96971 18.0303C10.2626 18.3232 10.7375 18.3232 11.0304 18.0303L9.96971 16.9697ZM7.00004 23.75C4.83693 23.75 3.08337 21.9964 3.08337 19.8333H1.58337C1.58337 22.8249 4.0085 25.25 7.00004 25.25V23.75ZM24.9167 19.8333C24.9167 21.9964 23.1632 23.75 21 23.75V25.25C23.9916 25.25 26.4167 22.8249 26.4167 19.8333H24.9167ZM21 4.25C23.1632 4.25 24.9167 6.00355 24.9167 8.16667H26.4167C26.4167 5.17512 23.9916 2.75 21 2.75V4.25ZM7.00004 2.75C4.0085 2.75 1.58337 5.17512 1.58337 8.16667H3.08337C3.08337 6.00355 4.83693 4.25 7.00004 4.25V2.75ZM24.7665 16.5995C23.6888 16.2264 22.9167 15.2024 22.9167 14H21.4167C21.4167 15.8612 22.6127 17.4412 24.2758 18.017L24.7665 16.5995ZM22.9167 14C22.9167 12.7976 23.6888 11.7736 24.7665 11.4005L24.2758 9.98304C22.6127 10.5588 21.4167 12.1388 21.4167 14H22.9167ZM5.08337 14C5.08337 15.2024 4.31125 16.2264 3.23354 16.5995L3.72429 18.017C5.38741 17.4412 6.58337 15.8612 6.58337 14H5.08337ZM3.23354 11.4005C4.31125 11.7736 5.08337 12.7976 5.08337 14H6.58337C6.58337 12.1388 5.38741 10.5588 3.72429 9.98304L3.23354 11.4005ZM26.4167 9.33333V8.16667H24.9167V9.33333H26.4167ZM24.9167 18.6667V19.8333H26.4167V18.6667H24.9167ZM1.58337 18.6667V19.8333H3.08337V18.6667H1.58337ZM3.08337 9.33333V8.16667H1.58337V9.33333H3.08337ZM21 23.75H7.00004V25.25H21V23.75ZM21 2.75H7.00004V4.25H21V2.75ZM3.23355 16.5995C2.46789 16.8646 1.58337 17.5722 1.58337 18.6667H3.08337C3.08337 18.4725 3.2722 18.1735 3.72429 18.017L3.23355 16.5995ZM24.7665 11.4005C25.5322 11.1354 26.4167 10.4278 26.4167 9.33333H24.9167C24.9167 9.52749 24.7279 9.82652 24.2758 9.98304L24.7665 11.4005ZM3.72429 9.98304C3.2722 9.82652 3.08337 9.52749 3.08337 9.33333H1.58337C1.58337 10.4278 2.46789 11.1354 3.23354 11.4005L3.72429 9.98304ZM24.2758 18.017C24.7279 18.1735 24.9167 18.4725 24.9167 18.6667H26.4167C26.4167 17.5722 25.5322 16.8646 24.7665 16.5995L24.2758 18.017ZM10.9167 10.5C10.9167 10.7301 10.7302 10.9167 10.5 10.9167V12.4167C11.5586 12.4167 12.4167 11.5585 12.4167 10.5H10.9167ZM10.5 10.9167C10.2699 10.9167 10.0834 10.7301 10.0834 10.5H8.58337C8.58337 11.5585 9.44149 12.4167 10.5 12.4167V10.9167ZM10.0834 10.5C10.0834 10.2699 10.2699 10.0833 10.5 10.0833V8.58333C9.44149 8.58333 8.58337 9.44145 8.58337 10.5H10.0834ZM10.5 10.0833C10.7302 10.0833 10.9167 10.2699 10.9167 10.5H12.4167C12.4167 9.44145 11.5586 8.58333 10.5 8.58333V10.0833ZM17.9167 17.5C17.9167 17.7301 17.7302 17.9167 17.5 17.9167V19.4167C18.5586 19.4167 19.4167 18.5585 19.4167 17.5H17.9167ZM17.5 17.9167C17.2699 17.9167 17.0834 17.7301 17.0834 17.5H15.5834C15.5834 18.5585 16.4415 19.4167 17.5 19.4167V17.9167ZM17.0834 17.5C17.0834 17.2699 17.2699 17.0833 17.5 17.0833V15.5833C16.4415 15.5833 15.5834 16.4415 15.5834 17.5H17.0834ZM17.5 17.0833C17.7302 17.0833 17.9167 17.2699 17.9167 17.5H19.4167C19.4167 16.4415 18.5586 15.5833 17.5 15.5833V17.0833ZM16.9697 9.96967L9.96971 16.9697L11.0304 18.0303L18.0304 11.0303L16.9697 9.96967Z" fill="#28303F"/>
</svg>
