<svg width="28" height="28" viewBox="0 0 28 28" fill="none" xmlns="http://www.w3.org/2000/svg">
<circle cx="3.5" cy="3.5" r="3.5" transform="matrix(1 0 0 -1 10.5 14)" stroke="#28303F" stroke-width="1.5" stroke-linejoin="round"/>
<path d="M22.1654 25.52C24.1788 25.0024 25.6667 23.175 25.6667 21V7.00004C25.6667 4.42271 23.5774 2.33337 21 2.33337H7.00004C4.42271 2.33337 2.33337 4.42271 2.33337 7.00004V21C2.33337 23.175 3.82124 25.0024 5.83466 25.52M22.1654 25.52C21.7929 25.6158 21.4024 25.6667 21 25.6667H7.00004C6.59766 25.6667 6.20717 25.6158 5.83466 25.52M22.1654 25.52C22.0872 21.0774 18.4614 17.5 14 17.5C9.53871 17.5 5.91292 21.0774 5.83466 25.52" stroke="#28303F" stroke-width="1.5"/>
</svg>
